<svg height="29" viewBox="0 0 136 29" width="136" xmlns="http://www.w3.org/2000/svg"><g fill="none" fill-rule="evenodd" transform="translate(.03125 .338259)"><path d="m4 0h128c2.209139 0 4 1.790861 4 4v10c0 2.209139-1.790861 4-4 4h-128c-2.209139 0-4-1.790861-4-4v-10c0-2.209139 1.790861-4 4-4z" fill="#000"/><path d="m35.2102029 11.361h3.2196522v1.639h-5.1492754v-7.7h1.9296232zm7.7401739-6.127c2.3524058 0 4.1085797 1.672 4.1085797 3.905 0 2.244-1.7561739 3.949-4.1085797 3.949-2.3415652 0-4.0977391-1.694-4.0977391-3.949 0-2.244 1.7561739-3.905 4.0977391-3.905zm.0216812 1.639c-1.1707826 0-2.1464348.979-2.1464348 2.277s.9864927 2.299 2.1464348 2.299c1.1707826 0 2.1030724-1.001 2.1030724-2.299s-.9322898-2.277-2.1030724-2.277zm9.5288695-1.584v5.214c0 1.639-1.0081739 2.585-2.6234203 2.585-1.0732173 0-1.9404637-.451-2.6125797-1.232l.8889276-1.309c.542029.572 1.1491014.858 1.5935652.858.5095072 0 .8130435-.319.8130435-.946v-3.586h-2.6017392v-1.584zm6.4284638 6.292h-3.3172174l-.5528696 1.419h-1.983826l3.273855-7.7h1.9838261l3.197971 7.7h-2.0597101zm-.5637101-1.485-1.084058-2.849-1.1057391 2.849zm6.3851014-4.796h3.3063768c1.9404638 0 3.0570435.968 3.0570435 2.684 0 1.804-1.1165797 2.849-3.0570435 2.849h-1.3767536v2.167h-1.9296232zm1.9296232 1.54v2.453h1.2791884c.8455652 0 1.3333913-.429 1.3333913-1.243 0-.803-.4878261-1.21-1.3333913-1.21zm10.0166956 6.16-1.1274202-2.167h-1.5176812v2.167h-1.9296232v-7.7h3.3931015c2.0055072 0 3.1546087.968 3.1546087 2.684 0 1.177-.4878261 2.024-1.3767537 2.475l1.5935653 2.541zm-2.6451014-3.707h1.4634783c.8347246 0 1.3225507-.429 1.3225507-1.243 0-.803-.4878261-1.21-1.3225507-1.21h-1.4634783zm9.518029-4.059c2.3524058 0 4.1085797 1.672 4.1085797 3.905 0 2.244-1.7561739 3.949-4.1085797 3.949-2.3415652 0-4.0977391-1.694-4.0977391-3.949 0-2.244 1.7561739-3.905 4.0977391-3.905zm.0216811 1.639c-1.1707826 0-2.1464347.979-2.1464347 2.277s.9864927 2.299 2.1464347 2.299c1.1707827 0 2.1030725-1.001 2.1030725-2.299s-.9322898-2.277-2.1030725-2.277zm10.9056232 0h-2.2873623v6.127h-1.9296232v-6.127h-2.2656811v-1.584h6.4826666zm6.7645217-.033h-4.0110144v1.529h3.6207534v1.54h-3.6207534v1.551h4.1302604v1.54h-6.0598836v-7.7h5.9406376zm6.406783 2.244h1.669449v3.003c-.813044.583-2.092232 1.001-3.154609 1.001-2.309043 0-4.054377-1.694-4.054377-3.938 0-2.233 1.788696-3.916 4.184464-3.916 1.127421 0 2.319884.44 3.100406 1.144l-1.084058 1.331c-.55287-.517-1.322551-.836-2.027188-.836-1.246667 0-2.200638.99-2.200638 2.277 0 1.309.964812 2.299 2.222319 2.299.390261 0 .888927-.143 1.344232-.374zm4.943304 3.916h-1.929623v-7.7h1.929623zm1.517681-7.7h3.263015c2.384927 0 4.032695 1.562 4.032695 3.85 0 2.277-1.669449 3.85-4.108579 3.85h-3.187131zm1.929623 1.562v4.576h1.376754c1.181623 0 2.027188-.924 2.027188-2.277 0-1.364-.888927-2.299-2.113913-2.299zm11.425971 4.719h-3.317217l-.55287 1.419h-1.983826l3.273855-7.7h1.983827l3.197971 7.7h-2.059711zm-.56371-1.485-1.084058-2.849-1.105739 2.849z" fill="#fff"/><path d="m31.1597681 21.673c.878087 0 1.7561739.369 2.3593044.972l-.612.774c-.4523479-.495-1.0998261-.801-1.7295653-.801-1.2417391 0-2.2173913.972-2.2173913 2.214s.9756522 2.223 2.2173913 2.223c.6208696 0 1.2594783-.288 1.7295653-.747l.6208695.702c-.6297391.63-1.5255652 1.035-2.4036521 1.035-1.8182609 0-3.2285218-1.395-3.2285218-3.204 0-1.791 1.428-3.168 3.264-3.168zm6.2086957 0c1.8537391 0 3.2906087 1.377 3.2906087 3.177s-1.4368696 3.195-3.2906087 3.195c-1.8537392 0-3.2906087-1.395-3.2906087-3.195 0-1.809 1.4368695-3.177 3.2906087-3.177zm.0088695.954c-1.224 0-2.2351304.972-2.2351304 2.223s1.02 2.241 2.2351304 2.241c1.2151305 0 2.2085218-.99 2.2085218-2.241s-.9933913-2.223-2.2085218-2.223zm10.9627826 5.373h-.9667826l-.0088695-4.707-1.9601739 4.05h-.6829566l-1.9601739-4.05v4.707h-.9845217v-6.3h1.2417391l2.0488696 4.185 2.04-4.185h1.2328695zm1.6408696-6.3h2.4746087c1.5610435 0 2.4568696.783 2.4568696 2.151 0 1.422-.8958261 2.25-2.4568696 2.25h-1.428v1.899h-1.0466087zm1.0466087.954v2.493h1.3836522c.957913 0 1.4989565-.414 1.4989565-1.269 0-.828-.5410435-1.224-1.4989565-1.224zm8.8606957 5.346-1.1353044-1.908c-.0886956.009-.1862609.009-.2838261.009h-1.4723478v1.899h-1.0466087v-6.3h2.5189565c1.5876522 0 2.5012174.783 2.5012174 2.151 0 1.008-.4612174 1.719-1.2860869 2.043l1.3925217 2.106zm-2.8914783-2.853h1.4723478c.9579131 0 1.5078261-.414 1.5078261-1.269 0-.828-.549913-1.224-1.5078261-1.224h-1.4723478zm9.3751304 1.431h-3.1309565l-.5942609 1.422h-1.0909565l2.7406957-6.3h1.0732174l2.7140869 6.3h-1.1175652zm-.3991304-.945-1.1707826-2.799-1.1707826 2.799zm6.7852174 2.367h-1.0466087v-5.355h-1.2151304v-.945h2.2617391zm4.1243478-6.327c1.694087 0 2.6342609 1.134 2.6342609 3.177s-.9401739 3.177-2.6342609 3.177c-1.7029565 0-2.6431304-1.134-2.6431304-3.177s.9401739-3.177 2.6431304-3.177zm0 .837c-1.0466087 0-1.569913.738-1.569913 2.34 0 1.593.5233043 2.34 1.569913 2.34 1.0377391 0 1.5610435-.747 1.5610435-2.34 0-1.602-.5233044-2.34-1.5610435-2.34zm6.1288696-.837c1.6940869 0 2.6342608 1.134 2.6342608 3.177s-.9401739 3.177-2.6342608 3.177c-1.7029565 0-2.6431305-1.134-2.6431305-3.177s.940174-3.177 2.6431305-3.177zm0 .837c-1.0466087 0-1.5699131.738-1.5699131 2.34 0 1.593.5233044 2.34 1.5699131 2.34 1.0377391 0 1.5610435-.747 1.5610435-2.34 0-1.602-.5233044-2.34-1.5610435-2.34zm5.037913-.828c1.02 0 1.6408696.702 1.6408696 1.872 0 1.179-.6208696 1.89-1.6408696 1.89s-1.6408695-.711-1.6408695-1.89c0-1.17.6208695-1.872 1.6408695-1.872zm-.4700869 6.318 4.5678261-6.3h.9756521l-4.5589565 6.3zm.4700869-5.706c-.612 0-.957913.459-.957913 1.26 0 .81.345913 1.278.957913 1.278s.9667826-.468.9667826-1.278c0-.801-.3547826-1.26-.9667826-1.26zm4.6742609 1.971c1.02 0 1.6408696.702 1.6408696 1.872 0 1.179-.6208696 1.881-1.6408696 1.881s-1.6408696-.702-1.6408696-1.881c0-1.17.6208696-1.872 1.6408696-1.872zm0 .603c-.612 0-.9579131.468-.9579131 1.269 0 .81.3459131 1.269.9579131 1.269s.9667826-.459.9667826-1.269c0-.801-.3547826-1.269-.9667826-1.269zm7.1222609-3.213c.8071308 0 1.5965218.261 2.1730438.648l-.434609.936c-.674087-.414-1.348174-.585-1.8182609-.585-.612 0-1.0111305.234-1.0111305.657 0 1.377 3.3526954.639 3.3438264 2.907 0 1.125-.975652 1.818-2.3415655 1.818-.9756522 0-1.8980869-.405-2.5366956-.999l.4523478-.918c.6386087.594 1.4368695.918 2.1020869.918.7273044 0 1.1619134-.279 1.1619134-.765 0-1.404-3.352696-.621-3.352696-2.862 0-1.08.9135652-1.755 2.2617392-1.755zm7.9116518.999h-3.388174v1.701h3.033392v.954h-3.033392v1.737h3.494609v.954h-4.541217v-6.3h4.434782zm5.632174 2.25h.913565v2.322c-.629739.486-1.561043.819-2.412521.819-1.836 0-3.264-1.395-3.264-3.195s1.445739-3.177 3.326087-3.177c.886956 0 1.773913.342 2.385913.882l-.594261.783c-.478957-.45-1.144174-.72-1.791652-.72-1.268348 0-2.261739.981-2.261739 2.232 0 1.26 1.00226 2.241 2.270608 2.241.461218 0 .984522-.162 1.428-.432zm7.672174-3.204v3.69c0 1.647-1.02 2.655-2.696348 2.655-1.676347 0-2.705217-1.008-2.705217-2.655v-3.69h1.046609v3.69c0 1.062.647478 1.701 1.667478 1.701 1.01113 0 1.640869-.63 1.640869-1.701v-3.69zm5.437044 6.3-1.135305-1.908c-.088695.009-.186261.009-.283826.009h-1.472348v1.899h-1.046608v-6.3h2.518956c1.587652 0 2.501218.783 2.501218 2.151 0 1.008-.461218 1.719-1.286087 2.043l1.392521 2.106zm-2.891479-2.853h1.472348c.957913 0 1.507826-.414 1.507826-1.269 0-.828-.549913-1.224-1.507826-1.224h-1.472348zm9.375131 1.431h-3.130957l-.594261 1.422h-1.090956l2.740696-6.3h1.073217l2.714087 6.3h-1.117565zm-.399131-.945-1.170782-2.799-1.170783 2.799z" fill="#fff"/><path d="m25.3885631 19.4952714c-.7138038 1.9629934-1.7933233 3.6698191-3.2089769 5.072574-1.6113773 1.5966283-3.721384 2.8653372-6.271465 3.7703536-.083679.0296053-.171005.0538652-.2587362.0717516-.1158944.023232-.2338148.0357731-.3507222.0374178h-.0228953c-.1246066 0-.2498212-.0127467-.3740226-.0374178-.0877313-.0178864-.1738416-.0421463-.2571153-.0711348-2.5531202-.9035773-4.66576088-2.1716694-6.27875911-3.7682977-1.41626141-1.4027549-2.49557826-3.1085526-3.20836905-5.071546-1.29611226-3.569079-1.22236125-7.5008224-1.1629958-10.66036189l.00101305-.04851974c.01195415-.26089636.0196534-.53495068.0239083-.83758226.0216795-1.4858141 1.18589101-2.71504932 2.65037422-2.79790295 3.0533705-.17290294 5.41542719-1.18338815 7.43365039-3.17948189l.0176273-.01644737c.335121-.31188326.7573655-.46484379 1.1775839-.45847041.405225.00534541.8088291.1581003 1.1319961.45847041l.017222.01644737c2.0186285 1.99609374 4.3806851 3.00657895 7.4340556 3.17948189 1.4644832.08285363 2.6286947 1.31208885 2.6503742 2.79790295.0042549.30468753.0119541.57833063.0239083.83758226l.0006078.02055921c.0591629 3.16550162.1325087 7.10505762-1.1682637 10.68462172z" fill="#23da00"/><path d="m25.3885631 19.4952714c-.7138038 1.9629934-1.7933233 3.6698191-3.2089769 5.072574-1.6113773 1.5966283-3.721384 2.8653372-6.271465 3.7703536-.083679.0296053-.171005.0538652-.2587362.0717516-.1158944.023232-.2338148.0357731-.3507222.0374178v-26.94716281c.405225.00534541.8088291.1581003 1.1319961.45847041l.017222.01644737c2.0186285 1.99609374 4.3806851 3.00657895 7.4340556 3.17948189 1.4644832.08285363 2.6286947 1.31208885 2.6503742 2.79790295.0042549.30468753.0119541.57833063.0239083.83758226l.0006078.02055921c.0591629 3.16550162.1325087 7.10505762-1.1682637 10.68462172z" fill="#00a801"/></g></svg>